<svg width="1440" height="693" viewBox="0 0 1440 693" fill="none" xmlns="http://www.w3.org/2000/svg">
<g clip-path="url(#clip0_948_6792)">
<path d="M803.435 64.5671C770.71 22.105 766.003 -41.2983 784.132 -92.8379C802.253 -144.371 840.272 -184.736 883.334 -212.447C898.581 -222.252 914.75 -230.757 932.071 -234.679C989.791 -247.75 1048.45 -207.072 1084.51 -154.656C1107.54 -121.175 1124.27 -82.3966 1133.28 -41.6045C1145.42 13.3866 1143.58 71.0632 1155.38 126.142C1193.72 305.001 1363.22 415.816 1422.05 587.932C1432.67 618.973 1439.49 652.399 1435.62 685.14C1429.69 735.501 1399.53 777.75 1367.16 813.306C1340.96 842.086 1311.31 869.086 1275.64 879.84C1223.81 895.457 1168.11 874.141 1121.37 843.798C985.691 755.697 896.089 585.304 894.137 411.672C893.722 374.911 896.946 338.151 894.708 301.442C889.453 215.132 853.729 132.864 803.16 66.4717" fill="#8A91B1" fill-opacity="0.42"/>
<path d="M-537.881 266.268C-588.239 272.661 -639.076 244.566 -668.291 203.016C-697.506 161.474 -707.247 108.626 -704.578 57.8878C-703.628 39.9246 -701.182 21.8373 -694.614 5.08983C-672.719 -50.7352 -609.415 -80.1363 -549.647 -84.3294C-511.467 -87.009 -472.734 -81.6332 -436.728 -68.657C-388.188 -51.1652 -345.324 -20.3829 -296.908 -2.55199C-139.671 55.3323 38.1297 -33.0283 201.538 3.97333C231.009 10.6475 260.207 21.7546 282.986 41.6283C318.026 72.1955 333.542 119.287 342.738 164.89C350.182 201.8 354.371 240.746 342.878 276.598C326.172 328.684 279.235 365.363 230.365 389.844C88.4957 460.886 -90.5699 450.978 -223.755 364.718C-251.954 346.457 -278.145 325.095 -307.31 308.414C-375.877 269.187 -458.176 257.981 -536.584 267.467" fill="#8A91B1" fill-opacity="0.42"/>
<path d="M-52.2189 723.335C-107.011 732.614 -163.896 704.225 -197.743 660.143C-231.589 616.072 -244.649 558.756 -244.038 503.182C-243.816 483.505 -241.963 463.626 -235.54 445.024C-214.131 383.014 -146.224 347.998 -81.0375 340.695C-39.3975 336.027 3.21468 340.14 43.1902 352.682C97.0809 369.589 145.368 401.28 199.138 418.563C373.763 474.667 564.229 370 744.655 403C777.195 408.953 809.638 419.763 835.459 440.446C875.177 472.258 894.292 523.019 906.426 572.441C916.247 612.442 922.601 654.815 911.661 694.523C895.757 752.21 846.084 794.434 793.741 823.414C641.791 907.518 445.471 904.842 295.864 816.631C264.188 797.957 234.568 775.802 201.907 758.898C125.121 719.149 34.5887 710.648 -50.7456 724.586" fill="#8A91B1" fill-opacity="0.42"/>
</g>
<defs>
<clipPath id="clip0_948_6792">
<rect width="1440" height="693" fill="white"/>
</clipPath>
</defs>
</svg>
