<svg width="1440" height="693" viewBox="0 0 1440 693" fill="none" xmlns="http://www.w3.org/2000/svg">
<g clip-path="url(#clip0_948_6792)">
<path d="M757.622 49.9118C723.695 5.64487 722.467 -57.9433 746.042 -108.385C769.61 -158.821 814.738 -196.972 864.707 -222.199C882.399 -231.125 901.039 -238.7 920.677 -241.632C986.12 -251.405 1049.19 -207.446 1086.21 -153.049C1109.86 -118.302 1126.12 -78.6233 1133.61 -37.3723C1143.69 18.2372 1137.95 75.7338 1147.66 131.411C1179.18 312.217 1361.85 432.522 1416.74 607.758C1426.64 639.362 1432.15 673.133 1425.74 705.611C1415.88 755.569 1379.44 796.049 1340.94 829.719C1309.77 856.972 1274.86 882.251 1234.25 890.964C1175.23 903.614 1114.25 879.16 1063.86 846.199C917.601 750.501 828.16 575.237 837.037 401.72C838.914 364.984 844.865 328.455 844.699 291.666C844.315 205.17 809.568 120.978 757.192 51.7982" fill="#8A91B1" fill-opacity="0.42"/>
<path d="M-578.881 266.268C-629.239 272.661 -680.076 244.566 -709.291 203.016C-738.506 161.474 -748.247 108.626 -745.578 57.8878C-744.628 39.9246 -742.182 21.8373 -735.614 5.08983C-713.719 -50.7352 -650.415 -80.1363 -590.647 -84.3294C-552.467 -87.009 -513.734 -81.6332 -477.728 -68.657C-429.188 -51.1652 -386.324 -20.3829 -337.908 -2.55199C-180.671 55.3323 -2.87032 -33.0283 160.538 3.97333C190.009 10.6475 219.207 21.7546 241.986 41.6283C277.026 72.1955 292.542 119.287 301.738 164.89C309.182 201.8 313.371 240.746 301.878 276.598C285.172 328.684 238.235 365.363 189.365 389.844C47.4957 460.886 -131.57 450.978 -264.755 364.718C-292.954 346.457 -319.145 325.095 -348.31 308.414C-416.877 269.187 -499.176 257.981 -577.584 267.467" fill="#8A91B1" fill-opacity="0.42"/>
<path d="M-222.041 707.241C-277.172 714.234 -332.827 683.503 -364.811 638.052C-396.795 592.611 -407.46 534.802 -404.538 479.301C-403.498 459.651 -400.82 439.866 -393.629 421.547C-369.659 360.481 -300.355 328.32 -234.921 323.734C-193.123 320.802 -150.718 326.683 -111.299 340.877C-58.1583 360.011 -11.2314 393.683 41.7741 413.187C213.914 476.505 408.568 379.85 587.466 420.325C619.73 427.626 651.696 439.776 676.634 461.515C714.995 494.951 731.982 546.463 742.05 596.347C750.199 636.722 754.785 679.323 742.203 718.541C723.914 775.517 672.528 815.639 619.025 842.417C463.708 920.128 267.67 909.29 121.861 814.933C90.9891 794.958 62.3161 771.59 30.3861 753.343C-44.6808 710.435 -134.781 698.176 -220.621 708.553" fill="#8A91B1" fill-opacity="0.42"/>
</g>
<defs>
<clipPath id="clip0_948_6792">
<rect width="1440" height="693" fill="white"/>
</clipPath>
</defs>
</svg>
