<svg width="1401" height="721" viewBox="0 0 1401 721" fill="none" xmlns="http://www.w3.org/2000/svg">
<g opacity="0.6">
<path d="M249.532 14.5604L237.693 1.58691L224.72 13.4252L236.558 26.3986L249.532 14.5604Z" stroke="white" stroke-width="2"/>
<path d="M419.268 17.6121L417.768 16.7461V18.4781V35.5666V37.2986L419.268 36.4326L434.067 27.8884L435.567 27.0223L434.067 26.1563L419.268 17.6121Z" stroke="white" stroke-width="2"/>
<path d="M12.7271 26.09L11.6638 24.7227L11.0114 26.3272L4.57432 42.1569L3.92188 43.7613L5.63761 43.5241L22.565 41.184L24.2808 40.9468L23.2175 39.5795L12.7271 26.09Z" stroke="white" stroke-width="2"/>
<path d="M15.766 241.374L15.1453 239.757L14.0553 241.103L3.30098 254.383L2.21094 255.729L3.92166 256L20.7996 258.674L22.5103 258.945L21.8897 257.328L15.766 241.374Z" stroke="white" stroke-width="2"/>
<path d="M537.592 481.112L536.971 479.495L535.881 480.841L511.704 510.697L510.613 512.043L512.324 512.314L550.269 518.325L551.98 518.596L551.359 516.979L537.592 481.112Z" stroke="white" stroke-width="2"/>
<path d="M231.592 594.111L230.971 592.494L229.881 593.84L205.704 623.696L204.613 625.042L206.324 625.313L244.269 631.324L245.98 631.595L245.359 629.978L231.592 594.111Z" stroke="white" stroke-width="2"/>
<path d="M656.3 624.151L655.675 622.674L654.624 623.885L602.923 683.477L601.742 684.838L603.522 685.12L685.976 698.181L687.755 698.463L687.053 696.804L656.3 624.151Z" stroke="white" stroke-width="2"/>
<path d="M747.733 387.14L748.373 384.13L746.086 386.189L743.459 388.554L740.398 386.787L737.733 385.248L738.985 388.06L740.422 391.289L737.796 393.654L735.508 395.713L738.569 395.391L742.084 395.022L743.522 398.251L744.774 401.063L745.414 398.052L746.149 394.595L749.664 394.225L752.724 393.904L750.059 392.365L746.998 390.598L747.733 387.14Z" stroke="white" stroke-width="2"/>
<path d="M1389.26 622.766L1389.9 619.755L1387.62 621.815L1381.08 627.705L1373.45 623.304L1370.79 621.765L1372.04 624.576L1375.62 632.618L1369.08 638.508L1366.79 640.568L1369.85 640.246L1378.61 639.326L1382.19 647.368L1383.44 650.179L1384.08 647.169L1385.91 638.558L1394.66 637.638L1397.72 637.317L1395.06 635.778L1387.43 631.376L1389.26 622.766Z" stroke="white" stroke-width="2"/>
<path d="M99.9531 535.645L76.6907 544.342C73.8376 545.409 72.3895 548.587 73.4562 551.44L82.154 574.702C83.2208 577.555 86.3985 579.004 89.2516 577.937L112.514 569.239C115.367 568.172 116.815 564.995 115.748 562.141L107.051 538.879C105.984 536.026 102.806 534.578 99.9531 535.645Z" stroke="white" stroke-width="2"/>
<path d="M83.6292 555.312L89.0322 553.292L88.3449 551.453C88.2697 551.477 88.2084 551.493 88.1492 551.515C85.7872 552.398 83.4252 553.281 81.0636 554.165C81.0188 554.181 80.977 554.206 80.9336 554.227L86.0985 568.04C86.1866 568.002 86.273 567.959 86.3631 567.925C88.6567 567.067 90.9508 566.209 93.2446 565.351L93.5064 565.253L92.8094 563.389L87.4052 565.41L85.8387 561.22L91.2437 559.2L90.5496 557.343L85.1444 559.364L83.6291 555.311L83.6292 555.312Z" fill="white"/>
<path d="M100.013 560.595C102.141 560.442 103.562 559.261 104.417 557.353C104.514 557.137 104.631 557.008 104.856 556.929C105.488 556.71 106.111 556.466 106.737 556.232C106.81 556.205 106.885 556.184 106.966 556.158C106.88 556.969 106.617 557.807 106.193 558.6C105.261 560.341 103.546 561.865 101.187 562.418C99.6822 562.771 98.1372 562.616 96.7487 562.063C94.8354 561.302 93.219 559.784 92.4182 557.786C91.0054 554.262 92.3152 550.332 95.5483 548.41C98.5962 546.598 102.368 547.188 104.489 549.236C104.395 549.271 104.317 549.301 104.238 549.33C103.604 549.567 102.968 549.799 102.338 550.045C102.181 550.106 102.059 550.1 101.91 550.02C100.773 549.413 99.5716 549.139 98.2926 549.416C95.7299 549.969 93.9738 552.166 93.9748 554.789C93.976 558.105 96.784 560.828 100.013 560.595Z" fill="white"/>
<path d="M230.311 499C234.376 499 237.811 495.94 237.811 492C237.811 488.06 234.376 485 230.311 485C226.245 485 222.811 488.06 222.811 492C222.811 495.94 226.245 499 230.311 499Z" stroke="white" stroke-width="2"/>
<path d="M1200.81 64C1207.95 64 1213.81 58.4432 1213.81 51.5C1213.81 44.5568 1207.95 39 1200.81 39C1193.67 39 1187.81 44.5568 1187.81 51.5C1187.81 58.4432 1193.67 64 1200.81 64Z" stroke="white" stroke-width="2"/>
<path d="M764.811 499C772.505 499 778.811 492.992 778.811 485.5C778.811 478.008 772.505 472 764.811 472C757.116 472 750.811 478.008 750.811 485.5C750.811 492.992 757.116 499 764.811 499Z" stroke="white" stroke-width="2"/>
<path d="M885.811 675C897.914 675 907.811 665.643 907.811 654C907.811 642.357 897.914 633 885.811 633C873.707 633 863.811 642.357 863.811 654C863.811 665.643 873.707 675 885.811 675Z" stroke="white" stroke-width="2"/>
<path d="M525.811 70C536.249 70 544.811 61.9942 544.811 52C544.811 42.0058 536.249 34 525.811 34C515.372 34 506.811 42.0058 506.811 52C506.811 61.9942 515.372 70 525.811 70Z" stroke="white" stroke-width="2"/>
<path d="M851.533 288.298L838.109 273.587L823.398 287.011L836.822 301.722L851.533 288.298Z" stroke="white" stroke-width="2"/>
<path d="M153.155 202.115C156.932 194.158 158.073 188.096 155.324 184.264C154.789 183.525 154.151 182.867 153.428 182.31C151.233 180.604 148.486 180.563 144.577 177.523C140.669 174.483 139.95 171.828 137.758 170.124C137.011 169.537 136.186 169.056 135.306 168.696C130.911 166.972 125.331 169.588 118.536 175.192C111.596 180.915 107.619 186.609 109.832 190.018C111.383 192.402 114.462 192.359 117.997 191.521C122.018 190.562 125.14 191.733 130.366 195.797C135.591 199.861 137.397 202.522 137.46 206.658C137.516 210.291 138.317 213.322 140.93 214.224C145.167 215.684 149.253 210.333 153.155 202.115Z" stroke="white" stroke-width="2" stroke-miterlimit="10"/>
<path d="M141.245 189.603C140.883 190.069 140.212 190.152 139.746 189.79C139.281 189.428 139.197 188.758 139.559 188.292C139.921 187.827 140.592 187.743 141.057 188.105C141.523 188.467 141.607 189.138 141.245 189.603Z" fill="white" fill-opacity="0.12" stroke="white" stroke-width="2"/>
<path d="M140.551 196.176C140.384 196.046 140.26 195.87 140.193 195.67C140.127 195.469 140.121 195.253 140.177 195.05C140.233 194.846 140.349 194.663 140.509 194.525C140.668 194.387 140.866 194.3 141.075 194.274C141.285 194.248 141.498 194.285 141.687 194.379C141.875 194.474 142.032 194.623 142.136 194.807C142.24 194.991 142.287 195.202 142.271 195.412C142.256 195.623 142.178 195.824 142.048 195.991C141.874 196.214 141.618 196.358 141.338 196.393C141.057 196.428 140.774 196.35 140.551 196.176Z" fill="white" fill-opacity="0.12" stroke="white" stroke-width="2"/>
<path d="M147.639 188.807C147.277 189.273 146.606 189.357 146.141 188.995C145.675 188.632 145.592 187.962 145.954 187.496C146.316 187.031 146.986 186.947 147.452 187.309C147.917 187.671 148.001 188.342 147.639 188.807Z" fill="white" fill-opacity="0.12" stroke="white" stroke-width="2"/>
<path d="M148.428 195.19C148.066 195.655 147.395 195.739 146.93 195.377C146.464 195.015 146.381 194.344 146.743 193.879C147.105 193.413 147.775 193.33 148.241 193.692C148.706 194.054 148.79 194.724 148.428 195.19Z" fill="white" fill-opacity="0.12" stroke="white" stroke-width="2"/>
<path d="M132.683 176.655L126.59 184.49M133.554 183.619L125.719 177.526" stroke="white" stroke-width="2" stroke-linecap="round" stroke-linejoin="round"/>
<path d="M387.468 452.482C389.962 447.229 390.715 443.227 388.9 440.698C388.547 440.21 388.125 439.775 387.648 439.408C386.199 438.281 384.386 438.254 381.806 436.247C379.226 434.241 378.751 432.488 377.304 431.363C376.811 430.975 376.266 430.658 375.685 430.421C372.784 429.282 369.1 431.009 364.615 434.708C360.033 438.487 357.408 442.246 358.869 444.496C359.892 446.07 361.925 446.042 364.259 445.488C366.913 444.855 368.974 445.628 372.424 448.311C375.873 450.994 377.065 452.751 377.107 455.481C377.144 457.879 377.673 459.88 379.398 460.475C382.195 461.439 384.892 457.907 387.468 452.482Z" stroke="white" stroke-width="1.32029" stroke-miterlimit="10"/>
<path d="M379.606 444.222C379.367 444.53 378.925 444.585 378.617 444.346C378.31 444.107 378.255 443.664 378.494 443.357C378.733 443.05 379.175 442.994 379.483 443.233C379.79 443.472 379.845 443.915 379.606 444.222Z" fill="white" fill-opacity="0.12" stroke="white" stroke-width="1.32029"/>
<path d="M379.147 448.561C379.037 448.475 378.954 448.359 378.91 448.226C378.866 448.094 378.863 447.952 378.9 447.817C378.937 447.683 379.013 447.562 379.119 447.471C379.224 447.38 379.354 447.322 379.493 447.305C379.631 447.288 379.772 447.312 379.896 447.375C380.021 447.437 380.124 447.536 380.193 447.657C380.261 447.778 380.293 447.917 380.282 448.057C380.272 448.196 380.221 448.329 380.135 448.439C380.02 448.586 379.851 448.681 379.666 448.704C379.481 448.727 379.294 448.675 379.147 448.561Z" fill="white" fill-opacity="0.12" stroke="white" stroke-width="1.32029"/>
<path d="M383.827 443.697C383.588 444.004 383.145 444.06 382.838 443.821C382.531 443.582 382.475 443.139 382.714 442.831C382.953 442.524 383.396 442.469 383.703 442.708C384.011 442.947 384.066 443.39 383.827 443.697Z" fill="white" fill-opacity="0.12" stroke="white" stroke-width="1.32029"/>
<path d="M384.349 447.91C384.11 448.217 383.667 448.272 383.36 448.033C383.052 447.794 382.997 447.352 383.236 447.044C383.475 446.737 383.918 446.682 384.225 446.921C384.532 447.16 384.588 447.602 384.349 447.91Z" fill="white" fill-opacity="0.12" stroke="white" stroke-width="1.32029"/>
<path d="M373.953 435.674L369.931 440.846M374.528 440.272L369.356 436.249" stroke="white" stroke-width="1.32029" stroke-linecap="round" stroke-linejoin="round"/>
<path d="M1301.21 362.727C1300.15 355.589 1298.17 350.943 1294.55 349.589C1293.85 349.329 1293.11 349.172 1292.37 349.123C1290.09 348.962 1288.21 350.187 1284.16 349.9C1280.11 349.613 1278.41 348.134 1276.15 347.973C1275.37 347.914 1274.59 347.963 1273.83 348.119C1270.05 348.949 1267.44 353.274 1265.37 360.186C1263.26 367.245 1263.15 372.934 1266.21 374.245C1268.35 375.161 1270.43 373.728 1272.45 371.546C1274.75 369.06 1277.41 368.433 1282.82 368.817C1288.23 369.2 1290.67 370.189 1292.6 372.974C1294.29 375.422 1296.22 377.119 1298.41 376.542C1301.96 375.604 1302.3 370.099 1301.21 362.727Z" stroke="white" stroke-width="1.63841" stroke-miterlimit="10"/>
<path d="M1287.4 359.641C1287.37 360.123 1286.95 360.486 1286.47 360.452C1285.98 360.417 1285.62 359.999 1285.65 359.517C1285.69 359.035 1286.11 358.672 1286.59 358.707C1287.07 358.741 1287.43 359.159 1287.4 359.641Z" fill="white" fill-opacity="0.12" stroke="white" stroke-width="1.63841"/>
<path d="M1289.92 364.431C1289.75 364.419 1289.59 364.356 1289.45 364.249C1289.31 364.143 1289.21 363.999 1289.16 363.835C1289.1 363.671 1289.1 363.494 1289.14 363.327C1289.19 363.16 1289.28 363.01 1289.41 362.897C1289.54 362.784 1289.71 362.712 1289.88 362.691C1290.05 362.669 1290.22 362.699 1290.38 362.777C1290.53 362.854 1290.66 362.976 1290.75 363.127C1290.83 363.277 1290.87 363.45 1290.86 363.623C1290.84 363.854 1290.73 364.068 1290.56 364.22C1290.38 364.372 1290.16 364.447 1289.92 364.431Z" fill="white" fill-opacity="0.12" stroke="white" stroke-width="1.63841"/>
<path d="M1291.39 356.184C1291.35 356.666 1290.94 357.029 1290.45 356.995C1289.97 356.96 1289.61 356.542 1289.64 356.06C1289.68 355.578 1290.1 355.215 1290.58 355.249C1291.06 355.284 1291.42 355.702 1291.39 356.184Z" fill="white" fill-opacity="0.12" stroke="white" stroke-width="1.63841"/>
<path d="M1294.83 360.168C1294.8 360.65 1294.38 361.013 1293.9 360.979C1293.42 360.945 1293.06 360.526 1293.09 360.044C1293.12 359.563 1293.54 359.2 1294.02 359.234C1294.51 359.268 1294.87 359.686 1294.83 360.168Z" fill="white" fill-opacity="0.12" stroke="white" stroke-width="1.63841"/>
<path d="M1275.67 354.732L1275.09 362.842M1279.44 359.075L1271.33 358.5" stroke="white" stroke-width="1.63841" stroke-linecap="round" stroke-linejoin="round"/>
<path d="M1333.49 157.605C1330.46 168.983 1337.03 180.615 1348.16 183.581C1353.81 185.086 1359.55 184.072 1364.23 181.224C1366.1 180.081 1367.04 179.511 1367.21 178.215C1367.37 176.918 1366.48 176.008 1364.69 174.187L1363.22 172.702C1358.97 168.382 1356.85 166.221 1357.44 163.987C1358.04 161.752 1360.96 160.934 1366.79 159.304L1368.8 158.741C1371.26 158.055 1372.49 157.713 1372.99 156.502C1373.49 155.295 1372.96 154.333 1371.9 152.41C1369.26 147.611 1364.79 143.877 1359.14 142.372C1348.01 139.405 1336.52 146.226 1333.49 157.605Z" stroke="white" stroke-width="2" stroke-linecap="round" stroke-linejoin="round"/>
<circle cx="1355.5" cy="152.5" r="1" fill="white" fill-opacity="0.68" stroke="white"/>
<path d="M663.555 299.108C662.194 308.756 668.745 317.659 678.186 318.991C682.975 319.666 687.588 318.264 691.149 315.46C692.575 314.334 693.288 313.773 693.298 312.692C693.306 311.61 692.48 310.951 690.828 309.633L689.479 308.558C685.559 305.431 683.597 303.867 683.865 301.973C684.132 300.078 686.449 299.116 691.082 297.198L692.676 296.535C694.627 295.728 695.603 295.325 695.894 294.281C696.186 293.239 695.656 292.501 694.595 291.027C691.948 287.347 687.903 284.723 683.114 284.048C673.674 282.716 664.916 289.46 663.555 299.108Z" stroke="white" stroke-width="1.65491" stroke-linecap="round" stroke-linejoin="round"/>
<circle cx="681.131" cy="292.729" r="0.827454" transform="rotate(-6.89132 681.131 292.729)" fill="white" fill-opacity="0.68" stroke="white" stroke-width="0.827454"/>
</g>
</svg>
