<svg width="754" height="754" viewBox="0 0 754 754" fill="none" xmlns="http://www.w3.org/2000/svg">
<path d="M193.279 433.81H258.404V466.806H193.279C184.596 466.806 176.781 473.753 176.781 483.305C176.781 492.856 183.728 499.803 193.279 499.803H599.659C608.342 499.803 616.157 506.75 616.157 516.301C616.157 524.985 609.211 532.8 599.659 532.8H192.411C165.493 532.8 143.784 511.091 143.784 484.173C143.784 455.518 166.361 433.81 193.279 433.81ZM181.123 321.795L213.251 319.19C213.251 318.322 193.279 199.36 188.938 175.047C186.333 161.154 181.123 122.079 131.628 122.079V155.075C151.599 155.075 154.204 162.89 155.941 177.652C161.151 201.965 181.123 320.058 181.123 321.795Z" fill="#B2C1C0"/>
<path d="M179.385 205.439H619.629C636.127 205.439 638.732 221.069 636.127 229.752L586.633 450.309C584.028 458.992 575.344 465.939 565.793 465.939H220.196C211.513 465.939 202.83 458.992 201.093 449.44L164.623 221.069C163.755 213.254 170.701 205.439 179.385 205.439ZM594.447 279.247L603.131 246.251C603.999 241.909 601.394 238.436 597.052 238.436H535.401C531.059 238.436 526.718 241.909 526.718 246.251L523.244 279.247C522.376 283.589 525.849 287.062 530.191 287.062H584.896C589.238 287.062 593.579 283.589 594.447 279.247ZM566.661 360.002C571.003 360.002 575.344 356.529 577.081 352.187L583.159 327.005C584.028 322.664 581.423 319.19 577.081 319.19H527.586C523.244 319.19 518.903 322.664 518.903 327.005L516.298 351.319C515.429 355.66 518.903 359.134 523.244 359.134C522.376 360.002 566.661 360.002 566.661 360.002ZM514.561 433.81H548.426C552.768 433.81 557.109 430.337 558.846 425.995L564.924 400.814C565.793 396.472 563.188 392.999 558.846 392.999H519.771C515.429 392.999 511.088 396.472 511.088 400.814L508.483 425.127C506.746 429.469 510.219 433.81 514.561 433.81ZM414.703 425.127C414.703 429.469 418.176 432.942 422.518 432.942H465.066C469.408 432.942 473.749 429.469 473.749 425.127L476.354 400.814C477.223 396.472 473.749 392.999 469.408 392.999H422.518C418.176 392.999 414.703 396.472 414.703 400.814V425.127ZM414.703 352.187C414.703 356.529 418.176 360.002 422.518 360.002H472.881C477.223 360.002 481.564 356.529 481.564 352.187L484.169 327.874C485.038 323.532 481.564 320.059 477.223 320.059H422.518C418.176 320.059 414.703 323.532 414.703 327.874V352.187ZM414.703 279.247C414.703 283.589 418.176 287.062 422.518 287.062H480.696C485.038 287.062 489.379 283.589 489.379 279.247L493.721 246.251C494.589 241.909 491.116 238.436 486.774 238.436H423.386C419.044 238.436 415.571 241.909 415.571 246.251C414.703 246.251 414.703 279.247 414.703 279.247ZM326.133 425.127C327.001 429.469 330.474 432.942 334.816 432.942H373.023C377.364 432.942 380.838 429.469 380.838 425.127V400.814C380.838 396.472 377.364 392.999 373.023 392.999H330.474C326.133 392.999 322.66 396.472 323.528 400.814L326.133 425.127ZM318.318 352.187C319.186 356.529 322.659 360.002 327.001 360.002H373.023C377.364 360.002 380.838 356.529 380.838 352.187V327.874C380.838 323.532 377.364 320.059 373.023 320.059H322.659C318.318 320.059 314.844 323.532 315.713 327.874L318.318 352.187ZM310.503 279.247C311.371 283.589 314.845 287.062 319.186 287.062H373.023C377.364 287.062 380.838 283.589 380.838 279.247V246.251C380.838 241.909 377.364 238.436 373.023 238.436H313.976C309.634 238.436 306.161 241.909 307.03 246.251L310.503 279.247ZM234.958 425.127C235.826 429.469 240.168 432.942 244.51 432.942H286.19C290.531 432.942 294.005 429.469 293.136 425.127L290.531 400.814C289.663 396.472 286.19 392.999 281.848 392.999H237.563C233.221 392.999 229.748 396.472 230.616 400.814L234.958 425.127ZM223.67 352.187C224.538 356.529 228.88 360.002 233.221 360.002H279.243C283.585 360.002 287.058 356.529 286.19 352.187L283.585 327.874C282.716 323.532 279.243 320.059 274.901 320.059H227.143C222.801 320.059 219.328 323.532 220.196 327.874L223.67 352.187ZM212.381 279.247C213.25 283.589 217.591 287.062 221.933 287.062H271.428C275.77 287.062 279.243 283.589 278.375 279.247L274.901 246.251C274.033 241.909 270.56 238.436 266.218 238.436H214.986C210.645 238.436 207.171 241.909 208.04 246.251L212.381 279.247Z" fill="#F15744"/>
<path d="M547.556 637C520.701 637 498.93 615.229 498.93 588.374C498.93 561.518 520.701 539.747 547.556 539.747C574.412 539.747 596.183 561.518 596.183 588.374C596.183 615.229 574.412 637 547.556 637Z" fill="#62727A"/>
<path d="M547.556 612.686C534.128 612.686 523.243 601.801 523.243 588.373C523.243 574.945 534.128 564.06 547.556 564.06C560.984 564.06 571.869 574.945 571.869 588.373C571.869 601.801 560.984 612.686 547.556 612.686Z" fill="white"/>
<path d="M254.06 637C227.204 637 205.433 615.229 205.433 588.374C205.433 561.518 227.204 539.747 254.06 539.747C280.916 539.747 302.687 561.518 302.687 588.374C302.687 615.229 280.916 637 254.06 637Z" fill="#62727A"/>
<path d="M229.746 588.373C229.746 602.266 241.035 612.686 254.06 612.686C267.953 612.686 278.373 601.398 278.373 588.373C278.373 574.48 267.085 564.06 254.06 564.06C241.035 564.06 229.746 574.48 229.746 588.373Z" fill="white"/>
<path d="M123.808 116H148.122V164.627H123.808C119.467 164.627 115.993 161.153 115.993 156.812V123.815C115.993 119.473 119.467 116 123.808 116Z" fill="#62727A"/>
<path d="M547.557 523.249C583.158 523.249 612.682 552.772 612.682 588.373H482.432C482.432 551.904 511.087 523.249 547.557 523.249ZM254.06 523.249C289.662 523.249 319.185 552.772 319.185 588.373H188.935C188.935 551.904 218.459 523.249 254.06 523.249Z" fill="#F15744"/>
</svg>
