<svg width="754" height="754" viewBox="0 0 754 754" fill="none" xmlns="http://www.w3.org/2000/svg">
<path d="M185.525 620.928C178.225 620.928 171.224 618.028 166.062 612.866C160.9 607.704 158 600.703 158 593.403V318.156C158 263.107 185.525 214.939 213.049 208.058V84.1965C213.049 80.5465 214.499 77.046 217.08 74.4651C219.661 71.8842 223.162 70.4342 226.812 70.4342H254.336C257.986 70.4342 261.487 71.8842 264.068 74.4651C266.649 77.046 268.099 80.5465 268.099 84.1965V208.058C295.623 214.939 323.148 263.107 323.148 318.156V593.403C323.148 600.703 320.248 607.704 315.086 612.866C309.924 618.028 302.923 620.928 295.623 620.928H185.525Z" fill="url(#paint0_linear_1_3639)"/>
<path d="M390.189 412.61C395.164 456.673 435.517 494.678 483.609 494.678C535.571 494.678 578.135 450.615 578.135 402.695V401.594C523.962 394.433 455.97 433.54 390.189 412.61Z" fill="#961623"/>
<path opacity="0.8" d="M597 404.599C597 345.765 567.583 309.639 567.583 309.639H399.339C399.339 309.639 369.922 346.281 369.922 404.599C369.922 460.336 417.918 512.461 477.784 515.557C477.268 548.071 474.172 581.617 466.43 593.487C455.076 610.002 415.854 601.744 415.854 619.291H551.069C551.069 601.744 511.846 610.002 500.492 593.487C492.751 581.617 489.654 548.071 489.138 515.557C549.004 512.461 597 460.852 597 404.599ZM483.461 502.139C432.885 502.139 391.081 461.884 385.921 415.953C385.405 412.856 385.405 409.243 385.405 406.147C385.405 355.054 410.693 324.089 410.693 324.089H556.229C556.229 324.089 581.002 355.054 581.518 405.115V406.147C581.518 455.691 537.65 502.139 483.461 502.139Z" fill="#A1B8C7"/>
<rect x="208.306" y="70.2839" width="63.6591" height="30.3139" rx="6.06277" fill="#F3C07B"/>
<rect x="177.992" y="338.8" width="123.861" height="144.505" fill="white"/>
<rect x="199.212" y="379.485" width="84.8788" height="9.09416" rx="4.54708" fill="#8B8B8B"/>
<rect x="205.274" y="406.768" width="72.7533" height="6.06277" rx="3.03139" fill="#8B8B8B"/>
<rect x="205.274" y="431.019" width="69.7219" height="6.06277" rx="3.03139" fill="#8B8B8B"/>
<rect x="214.368" y="418.894" width="54.565" height="6.06277" rx="3.03139" fill="#8B8B8B"/>
<defs>
<linearGradient id="paint0_linear_1_3639" x1="241.651" y1="412.831" x2="156.772" y2="412.831" gradientUnits="userSpaceOnUse">
<stop stop-color="#C26F6F"/>
<stop offset="0.5" stop-color="#8E3939"/>
<stop offset="1" stop-color="#800404"/>
</linearGradient>
</defs>
</svg>
