<svg width="100%" viewBox="0 0 217 66" fill="none" xmlns="http://www.w3.org/2000/svg">
<g clip-path="url(#clip0_1692_395)">
<path d="M210.377 57.7633C210.266 57.8193 118.91 57.7633 118.91 57.7633C117.964 57.3711 113.622 55.9143 113.622 50.7596C113.622 54.4576 113.956 60.1726 119.356 60.1726C119.745 60.1726 210.266 60.1726 210.266 60.1726C215.61 60.1726 216 54.2335 216 51.9923C215.889 52.1043 214.942 55.1299 210.377 57.7633Z" fill="#E25D04"/>
<path d="M160.775 51.0959C160.775 52.4966 160.775 53.9533 160.775 55.3541C162.668 55.3541 164.505 55.3541 166.342 55.3541C166.342 54.0654 166.342 52.8328 166.342 51.5441C166.342 39.1616 166.342 26.8351 166.342 14.4526C164.449 14.4526 162.668 14.4526 160.775 14.4526C160.775 26.7231 160.775 38.8814 160.775 51.0959Z" fill="white"/>
<path d="M139.397 19.3272C142.96 19.8315 145.799 21.7365 148.193 24.4259C148.527 24.7621 148.806 24.9302 149.251 24.9302C151.144 24.9302 152.981 24.9302 154.874 24.9302C155.096 24.9302 155.319 24.9302 155.597 24.9302C152.09 17.5343 142.904 12.3236 133.273 14.0605C123.03 15.9094 115.849 24.8741 116.071 35.4077C116.238 41.4028 118.91 46.8937 123.141 50.7597C126.203 53.5612 130.045 55.4662 134.275 56.0265C140.9 56.8669 146.857 54.5697 150.921 50.9838C152.814 49.359 154.261 47.398 155.263 45.3809C155.041 45.3809 154.818 45.3249 154.595 45.3249C152.758 45.3249 150.921 45.3249 149.028 45.3249C148.36 45.3249 147.915 45.549 147.469 45.9972C143.405 50.1434 138.562 51.8243 132.939 50.1434C124.366 47.6221 119.745 37.7609 122.919 29.1324C125.591 22.2968 132.216 18.2627 139.397 19.3272Z" fill="white"/>
<path d="M173.913 51.7122C173.913 52.9449 173.913 54.1215 173.913 55.3541C175.806 55.3541 177.643 55.3541 179.48 55.3541C179.48 54.1775 179.48 52.9449 179.48 51.7682C179.48 42.7475 179.48 33.7828 179.48 24.8181C177.587 24.8181 175.75 24.8181 173.913 24.8181C173.913 33.8388 173.913 42.7475 173.913 51.7122Z" fill="white"/>
<path d="M209.264 51.9924C206.647 48.0703 203.975 44.2043 201.359 40.2822C201.08 39.89 201.08 39.6099 201.359 39.1616C204.421 34.6233 207.427 30.0849 210.433 25.5465C210.6 25.3224 210.711 25.0983 210.878 24.8181C210.544 24.8181 210.377 24.7621 210.155 24.7621C208.318 24.7621 206.48 24.7621 204.588 24.7621C204.142 24.7621 203.92 24.8741 203.697 25.2663C201.748 28.2919 199.744 31.2615 197.74 34.2871C197.629 34.4552 197.517 34.6233 197.35 34.7913C197.183 34.5672 197.072 34.3991 196.961 34.2311C194.957 31.2615 193.008 28.2919 191.004 25.3224C190.781 24.9302 190.503 24.7621 190.058 24.7621C188.22 24.8181 186.383 24.7621 184.49 24.7621C184.323 24.7621 184.101 24.7621 183.767 24.8181C187.163 29.8047 190.503 34.7353 193.899 39.6659C191.171 43.7 188.499 47.7341 185.771 51.8243C184.992 53.0009 184.156 54.1775 183.377 55.4102C185.493 55.4102 187.441 55.4102 189.389 55.4102C189.835 55.4102 190.058 55.2421 190.336 54.9059C191.004 53.8974 191.728 52.8888 192.396 51.8803C193.843 49.7512 195.235 47.6221 196.682 45.493C196.905 45.1568 197.128 44.8766 197.406 44.4844C197.629 44.7646 197.796 44.9887 197.907 45.2128C199.466 47.454 200.969 49.6952 202.528 51.8803C203.196 52.8328 203.864 53.8413 204.532 54.7938C204.699 55.018 204.922 55.2981 205.144 55.3541C207.204 55.4102 209.32 55.3541 211.546 55.3541C211.324 55.018 211.212 54.8499 211.101 54.6818C210.489 53.7853 209.876 52.8888 209.264 51.9924Z" fill="white"/>
<path d="M173.857 21.1762C175.75 21.1762 177.643 21.1762 179.536 21.1762C179.536 18.935 179.536 16.6938 179.536 14.4526C177.643 14.4526 175.75 14.4526 173.857 14.4526C173.857 16.7498 173.857 18.935 173.857 21.1762Z" fill="#0A0E80"/>
<path d="M209.821 7.61707C179.814 7.61707 149.808 7.61707 119.745 7.61707C119.077 7.89721 118.409 8.0653 117.797 8.40148C115.125 9.85824 113.622 12.1554 113.622 15.2371C113.622 27.0032 113.622 38.9375 113.622 50.7037C113.622 50.7037 113.566 57.7634 118.91 57.7634H210.377C216.334 57.7634 215.944 52.1044 216 51.9363C216 39.2737 216 26.555 216 13.8924C215.944 13.7803 216.278 7.61707 209.821 7.61707ZM133.051 50.1434C138.729 51.8242 143.517 50.1434 147.581 45.9972C148.026 45.549 148.472 45.3248 149.14 45.3248C150.977 45.3809 152.814 45.3248 154.707 45.3248C154.929 45.3248 155.152 45.3248 155.375 45.3809C154.373 47.3979 152.87 49.359 151.032 50.9838C146.913 54.6257 141.012 56.9229 134.387 56.0265C130.156 55.4662 126.315 53.5612 123.253 50.7597C119.022 46.8937 116.35 41.4028 116.183 35.4076C115.96 24.8741 123.141 15.9094 133.385 14.0604C143.016 12.3235 152.201 17.5343 155.709 24.9301C155.43 24.9301 155.208 24.9301 154.985 24.9301C153.092 24.9301 151.255 24.9301 149.362 24.9301C148.917 24.9301 148.583 24.8181 148.305 24.4259C145.966 21.7365 143.127 19.8315 139.509 19.3272C132.327 18.2626 125.647 22.2968 123.141 29.1323C119.801 37.7609 124.477 47.566 133.051 50.1434ZM166.342 51.5441C166.342 52.8328 166.342 54.0654 166.342 55.3541C164.505 55.3541 162.668 55.3541 160.775 55.3541C160.775 53.9534 160.775 52.4966 160.775 51.0959C160.775 38.8815 160.775 26.7231 160.775 14.5087C162.668 14.5087 164.449 14.5087 166.342 14.5087C166.342 26.8351 166.342 39.2176 166.342 51.5441ZM179.48 51.7682C179.48 52.9448 179.48 54.1775 179.48 55.3541C177.587 55.3541 175.75 55.3541 173.913 55.3541C173.913 54.1214 173.913 52.9448 173.913 51.7122C173.913 42.7475 173.913 33.8388 173.913 24.8181C175.806 24.8181 177.643 24.8181 179.48 24.8181C179.48 33.8388 179.48 42.8035 179.48 51.7682ZM179.536 21.1762C177.643 21.1762 175.75 21.1762 173.857 21.1762C173.857 18.935 173.857 16.7499 173.857 14.4526C175.75 14.4526 177.643 14.4526 179.536 14.4526C179.536 16.6938 179.536 18.935 179.536 21.1762ZM205.144 55.3541C204.922 55.3541 204.699 55.0179 204.532 54.7938C203.864 53.8413 203.196 52.8328 202.528 51.8803C200.969 49.6391 199.466 47.3979 197.907 45.2128C197.74 44.9887 197.573 44.7645 197.406 44.4844C197.128 44.8766 196.905 45.1567 196.682 45.4929C195.235 47.622 193.843 49.7512 192.396 51.8803C191.728 52.8888 191.004 53.8973 190.336 54.9059C190.113 55.242 189.835 55.4101 189.389 55.4101C187.441 55.4101 185.493 55.4101 183.377 55.4101C184.156 54.2335 184.991 53.0569 185.771 51.8242C188.499 47.7341 191.227 43.7 193.899 39.6659C190.559 34.7353 187.163 29.8047 183.767 24.8181C184.101 24.8181 184.268 24.7621 184.49 24.7621C186.328 24.7621 188.165 24.7621 190.058 24.7621C190.503 24.7621 190.781 24.9301 191.004 25.3223C192.952 28.2919 194.957 31.2615 196.961 34.231C197.072 34.3991 197.239 34.5672 197.35 34.7913C197.517 34.5672 197.629 34.3991 197.74 34.287C199.744 31.2615 201.693 28.2919 203.697 25.2663C203.92 24.9301 204.198 24.7621 204.588 24.7621C206.425 24.7621 208.262 24.7621 210.155 24.7621C210.377 24.7621 210.544 24.7621 210.878 24.8181C210.711 25.0982 210.544 25.3223 210.433 25.5465C207.427 30.0848 204.421 34.6232 201.359 39.1616C201.08 39.6098 201.08 39.834 201.359 40.2822C204.031 44.2042 206.647 48.0703 209.264 51.9923C209.876 52.8888 210.489 53.8413 211.101 54.7378C211.212 54.9059 211.324 55.13 211.546 55.4101C209.32 55.4101 207.204 55.4101 205.144 55.3541Z" fill="#FF9900"/>
<path d="M6.90109 19.9435C12.2455 19.9435 17.5342 19.9435 22.8229 19.9435C22.8229 18.0945 22.8229 16.3016 22.8229 14.5087C22.6002 14.5087 22.4332 14.4526 22.2662 14.4526C15.3074 14.4526 8.34852 14.4526 1.38969 14.4526C1.27835 14.4526 1.11134 14.4526 1 14.5087C1 28.1238 1 41.795 1 55.4661C1.27835 55.4661 1.55671 55.4101 1.77939 55.4101C8.57121 55.4101 15.3074 55.4101 22.0992 55.4101C22.3775 55.4101 22.6002 55.4101 22.8786 55.4101C22.8786 53.5051 22.8786 51.7682 22.8786 49.8632C17.5342 49.8632 12.2455 49.8632 6.95676 49.8632C6.95676 45.717 6.95676 41.6269 6.95676 37.4247C12.3011 37.4247 17.5898 37.4247 22.8786 37.4247C22.8786 35.5757 22.8786 33.7828 22.8786 31.9338C17.5342 31.9338 12.2455 31.9338 6.95676 31.9338C6.90109 27.8997 6.90109 23.9776 6.90109 19.9435Z" fill="#0A0E80"/>
<path d="M88.9039 25.2103C82.8915 27.7876 78.8275 33.7828 78.9389 40.002C79.1059 49.0788 86.3987 56.2505 95.4174 56.2505C100.205 56.2505 104.213 54.5136 107.442 51.0958C112.174 46.1092 113.232 38.6013 110.114 32.7182C105.995 25.0982 96.8091 21.8485 88.9039 25.2103ZM95.4174 50.9277C89.5163 50.9277 84.673 46.0532 84.673 40.058C84.673 34.0069 89.405 29.1883 95.4174 29.1883C101.318 29.1883 106.106 34.0069 106.106 39.946C106.106 45.9972 101.263 50.9277 95.4174 50.9277Z" fill="#0A0E80"/>
<path d="M50.9366 25.5465C50.9366 31.2615 50.9366 36.9765 50.8252 42.6915C50.8252 43.8681 50.4912 45.0447 50.1015 46.1653C48.7097 49.9753 45.4808 51.32 41.6952 50.8718C38.4107 50.4796 36.5735 48.7987 35.8498 45.549C35.6271 44.4844 35.4045 43.3638 35.4045 42.2993C35.3488 36.6963 35.3488 31.1494 35.3488 25.5465C35.3488 25.3224 35.3488 25.0422 35.3488 24.8181C33.4003 24.8181 31.5632 24.8181 29.6147 24.8181C29.6147 25.1543 29.6147 25.3784 29.6147 25.6025C29.6147 30.9813 29.559 36.3041 29.6147 41.683C29.6147 43.1957 29.7817 44.7646 30.0044 46.2774C30.4498 49.1909 31.6189 51.8243 34.0684 53.5612C38.2993 56.6428 42.8643 56.979 47.7077 55.13C49.2108 54.5697 50.3799 53.5612 51.3819 52.2725C51.3819 53.281 51.3819 54.3456 51.3819 55.4102C53.1634 55.4102 54.8892 55.4102 56.615 55.4102C56.615 45.1568 56.615 34.9594 56.615 24.7621C54.7222 24.7621 52.8294 24.7621 50.9366 24.7621C50.9366 25.0422 50.9366 25.3224 50.9366 25.5465Z" fill="#0A0E80"/>
<path d="M69.3635 27.5635C69.3635 26.499 69.3635 25.6585 69.3635 24.706C68.4171 24.706 67.5821 24.706 66.6914 24.706C65.8006 24.706 64.9099 24.706 64.0192 24.706C64.0192 34.9594 64.0192 45.1568 64.0192 55.3541C65.912 55.3541 67.8048 55.3541 69.7532 55.3541C69.7532 55.074 69.7532 54.7938 69.7532 54.5697C69.7532 49.2469 69.7532 43.9241 69.7532 38.6013C69.7532 37.5368 69.8646 36.4722 70.0873 35.4077C70.644 32.6622 72.2584 30.8693 75.042 30.1969C75.7657 30.0288 76.4894 29.9168 77.2131 29.7487C77.2131 27.7877 77.2131 25.8827 77.2131 23.8656C74.0955 23.9777 71.4234 24.8741 69.3635 27.5635Z" fill="#0A0E80"/>
</g>
<defs>
<clipPath id="clip0_1692_395">
<rect width="215" height="52.5556" fill="white" transform="translate(1 7.61707)"/>
</clipPath>
</defs>
</svg>
