<svg width="50" height="50" viewBox="0 0 50 50" fill="none" xmlns="http://www.w3.org/2000/svg">
<path d="M24.721 16.7446C25.0916 14.5752 25.8948 12.9131 27.1303 11.7584C28.3659 10.5862 30.0163 10.0001 32.0815 10.0001C33.3523 10.0001 34.6585 10.2975 36 10.8924L35.391 12.7556C34.0496 12.2833 32.9111 12.0471 31.9756 12.0471C29.575 12.0471 28.0923 13.6129 27.5275 16.7446H34.2261V18.3979H27.3422C27.3245 18.6953 27.3157 19.1415 27.3157 19.7363V20.2087H33.4318V21.862H27.3951C27.5363 23.5241 27.9158 24.7925 28.5336 25.6672C29.1514 26.5245 30.1399 26.9532 31.499 26.9532C32.0815 26.9532 32.6463 26.8832 33.1935 26.7432C33.7407 26.6033 34.3143 26.4196 34.9145 26.1921L35.444 28.0291C34.1378 28.6765 32.7787 29.0001 31.3666 29.0001C29.1779 29.0001 27.5451 28.3965 26.4684 27.1893C25.4094 25.9647 24.7739 24.1889 24.5621 21.862H23V20.2087H24.4827V19.815C24.4827 19.5001 24.5003 19.0277 24.5356 18.3979H23V16.7446H24.721Z" fill="white"/>
<path d="M30.3741 37.4608C40.0213 37.4608 47.842 29.6401 47.842 19.9929C47.842 10.3457 40.0213 2.52502 30.3741 2.52502C20.7269 2.52502 12.9062 10.3457 12.9062 19.9929C12.9062 29.6401 20.7269 37.4608 30.3741 37.4608Z" stroke="white" stroke-width="3" stroke-linecap="round" stroke-linejoin="round"/>
<path d="M4.29583 21.9064C2.9549 24.3789 2.19336 27.2113 2.19336 30.2216C2.19336 39.8683 10.0134 47.6883 19.6599 47.6883C22.3937 47.6883 24.9808 47.06 27.2848 45.9404" stroke="white" stroke-width="3" stroke-linecap="round" stroke-linejoin="round"/>
</svg>
