<svg width="82" height="92" viewBox="0 0 82 92" fill="none" xmlns="http://www.w3.org/2000/svg">
<path d="M4.59961 76.75V12.25C4.59961 10.18 6.27961 8.5 8.34961 8.5H16.2596C16.8246 10.79 18.8946 12.5 21.3496 12.5H46.8496C49.6246 12.5 51.9046 10.32 52.0846 7.585V7.75C52.0846 8.005 52.0596 8.255 52.0246 8.5H59.5996C61.6696 8.5 63.3496 10.18 63.3496 12.25V38.5H67.8496V12.25C67.8496 7.7 64.1496 4 59.5996 4H51.9396C51.3746 1.71 49.3046 0 46.8496 0H21.3496C18.8946 0 16.8246 1.71 16.2596 4H8.34961C3.79961 4 0.0996094 7.7 0.0996094 12.25V76.75C0.0996094 81.3 3.79961 85 8.34961 85H29.5996V80.5H8.34961C6.27961 80.5 4.59961 78.82 4.59961 76.75ZM20.5996 5.25C20.5996 4.85 20.9496 4.5 21.3496 4.5H46.8496C47.2496 4.5 47.5996 4.85 47.5996 5.25V7.25C47.5996 7.65 47.2496 8 46.8496 8H21.3496C20.9496 8 20.5996 7.65 20.5996 7.25V5.25Z" fill="white"/>
<path d="M37.6546 28.21C36.8046 27.305 35.3796 27.26 34.4746 28.105L24.2596 37.685L18.6546 32.585C17.7346 31.75 16.3096 31.815 15.4746 32.735C14.6396 33.655 14.7046 35.075 15.6246 35.915L22.7646 42.415C23.1946 42.805 23.7346 43 24.2796 43C24.8246 43 25.3846 42.795 25.8196 42.39L37.5496 31.39C38.4546 30.54 38.4996 29.115 37.6496 28.21H37.6546Z" fill="white"/>
<path d="M34.4746 45.11L24.2596 54.69L18.6546 49.59C17.7346 48.755 16.3096 48.82 15.4746 49.74C14.6396 50.66 14.7046 52.08 15.6246 52.92L22.7646 59.42C23.1946 59.81 23.7346 60.005 24.2796 60.005C24.8246 60.005 25.3846 59.8 25.8196 59.395L37.5496 48.395C38.4546 47.545 38.4996 46.12 37.6496 45.215C36.7996 44.31 35.3746 44.265 34.4696 45.11H34.4746Z" fill="white"/>
<path d="M79.1746 55.525L74.7696 51.14C74.7696 51.14 74.7446 51.115 74.7296 51.1C74.7146 51.085 74.6996 51.07 74.6846 51.06L70.3146 46.71C69.5796 45.98 68.7446 45.42 67.8496 45.025C66.4296 44.395 64.8646 44.185 63.3496 44.4C61.6196 44.645 59.9546 45.43 58.6246 46.765L39.7646 66.245C39.7646 66.245 39.7596 66.255 39.7546 66.26C39.6646 66.355 39.5796 66.46 39.5046 66.575C39.4846 66.6 39.4696 66.63 39.4546 66.655C39.3996 66.745 39.3546 66.835 39.3146 66.93C39.2996 66.96 39.2846 66.99 39.2746 67.025C39.2346 67.13 39.1996 67.245 39.1746 67.355L34.6296 89.295C34.4746 90.04 34.7096 90.81 35.2446 91.345C35.6696 91.77 36.2446 92 36.8296 92C36.9846 92 37.1396 91.985 37.2996 91.95L59.2146 87.29C59.3446 87.26 59.4696 87.22 59.5896 87.17C59.6196 87.155 59.6546 87.145 59.6846 87.13C59.7896 87.08 59.8946 87.025 59.9896 86.96C60.0046 86.95 60.0196 86.945 60.0346 86.935C60.1446 86.86 60.2396 86.775 60.3346 86.68C60.3446 86.67 60.3596 86.66 60.3696 86.65L62.4646 84.49L79.2096 67.195C80.7596 65.635 81.6096 63.56 81.5996 61.355C81.5946 59.145 80.7346 57.075 79.1746 55.525ZM61.8396 49.915C62.2746 49.475 62.7946 49.165 63.3496 48.99C64.6396 48.58 66.1146 48.88 67.1396 49.9L67.8496 50.605L69.9946 52.74L50.0396 73.25L44.5396 67.78L61.8396 49.915ZM39.7396 86.83L42.7396 72.335L50.5146 80.07L50.9446 80.5L54.2146 83.75L39.7346 86.83H39.7396ZM75.9946 64.04L58.7196 81.885L53.2296 76.425L73.1846 55.91L76.0046 58.715C76.7096 59.42 77.0996 60.36 77.0996 61.365C77.1046 62.375 76.7196 63.315 75.9946 64.04Z" fill="white"/>
</svg>
