<svg width="34" height="34" viewBox="0 0 34 34" fill="none" xmlns="http://www.w3.org/2000/svg">
<path d="M2 32V28.6667C2 26.8986 2.70238 25.2029 3.95262 23.9526C5.20286 22.7024 6.89856 22 8.66667 22H15.3333C17.1014 22 18.7971 22.7024 20.0474 23.9526C21.2976 25.2029 22 26.8986 22 28.6667V32M23.6667 2.21667C25.1007 2.58384 26.3717 3.41784 27.2794 4.58718C28.1871 5.75653 28.6797 7.19472 28.6797 8.675C28.6797 10.1553 28.1871 11.5935 27.2794 12.7628C26.3717 13.9322 25.1007 14.7662 23.6667 15.1333M32 32V28.6667C31.9915 27.1953 31.4965 25.768 30.5921 24.6073C29.6877 23.4467 28.4247 22.6178 27 22.25M5.33333 8.66667C5.33333 10.4348 6.03571 12.1305 7.28595 13.3807C8.5362 14.631 10.2319 15.3333 12 15.3333C13.7681 15.3333 15.4638 14.631 16.714 13.3807C17.9643 12.1305 18.6667 10.4348 18.6667 8.66667C18.6667 6.89856 17.9643 5.20286 16.714 3.95262C15.4638 2.70238 13.7681 2 12 2C10.2319 2 8.5362 2.70238 7.28595 3.95262C6.03571 5.20286 5.33333 6.89856 5.33333 8.66667Z" stroke="white" stroke-width="2.4" stroke-linecap="round" stroke-linejoin="round"/>
</svg>
