<svg width="50" height="50" viewBox="0 0 50 50" fill="none" xmlns="http://www.w3.org/2000/svg">
<g clip-path="url(#clip0_783_1092)">
<path d="M24.9994 48.2143C37.8205 48.2143 48.2137 37.821 48.2137 25C48.2137 12.1791 37.8205 1.78571 24.9994 1.78571C12.1785 1.78571 1.78516 12.1791 1.78516 25C1.78516 37.821 12.1785 48.2143 24.9994 48.2143Z" stroke="white" stroke-width="3" stroke-linecap="round" stroke-linejoin="round"/>
<path d="M13.2129 28.5714C14.9986 35 22.1415 38.9285 28.57 37.1428C32.4986 35.7143 35.7129 32.5 36.7845 28.5714" stroke="white" stroke-width="3" stroke-linecap="round" stroke-linejoin="round"/>
<path d="M16.9632 19.6428C16.4701 19.6428 16.0703 19.2431 16.0703 18.75C16.0703 18.2569 16.4701 17.8571 16.9632 17.8571" stroke="white" stroke-width="3" stroke-linecap="round" stroke-linejoin="round"/>
<path d="M16.9629 19.6428C17.456 19.6428 17.8557 19.2431 17.8557 18.75C17.8557 18.2569 17.456 17.8571 16.9629 17.8571" stroke="white" stroke-width="3" stroke-linecap="round" stroke-linejoin="round"/>
<path d="M33.0354 19.6428C32.5423 19.6428 32.1426 19.2431 32.1426 18.75C32.1426 18.2569 32.5423 17.8571 33.0354 17.8571" stroke="white" stroke-width="3" stroke-linecap="round" stroke-linejoin="round"/>
<path d="M33.0352 19.6428C33.5283 19.6428 33.928 19.2431 33.928 18.75C33.928 18.2569 33.5283 17.8571 33.0352 17.8571" stroke="white" stroke-width="3" stroke-linecap="round" stroke-linejoin="round"/>
</g>
<defs>
<clipPath id="clip0_783_1092">
<rect width="50" height="50" fill="white"/>
</clipPath>
</defs>
</svg>
