<svg width="754" height="754" viewBox="0 0 754 754" fill="none" xmlns="http://www.w3.org/2000/svg">
<path d="M578 528.247C578 578.497 488.019 611.997 377 611.997C265.981 611.997 176 578.497 176 528.247C176 477.997 265.981 444.497 377 444.497C488.019 444.497 578 477.997 578 528.247Z" fill="url(#paint0_radial_1_1168)"/>
<path d="M376.996 143C332.572 143 289.968 160.647 258.556 192.06C227.143 223.472 209.496 266.076 209.496 310.5C209.496 348.824 231.271 389.225 256.162 423.462C281.521 458.402 312.341 489.993 334.753 511.232C346.125 522.113 361.257 528.186 376.996 528.186C392.735 528.186 407.867 522.113 419.24 511.232C441.651 489.993 472.471 458.402 497.831 423.462C522.688 389.225 544.496 348.824 544.496 310.5C544.496 288.504 540.164 266.723 531.746 246.401C523.328 226.078 510.99 207.613 495.436 192.06C479.883 176.506 461.418 164.168 441.096 155.75C420.773 147.333 398.992 143 376.996 143Z" fill="url(#paint1_linear_1_1168)"/>
<path d="M427.249 310.503C427.249 323.83 421.955 336.612 412.531 346.036C403.106 355.461 390.325 360.755 376.997 360.755C363.669 360.755 350.887 355.461 341.463 346.036C332.039 336.612 326.744 323.83 326.744 310.503C326.744 297.175 332.039 284.393 341.463 274.969C350.887 265.544 363.669 260.25 376.997 260.25C390.325 260.25 403.106 265.544 412.531 274.969C421.955 284.393 427.249 297.175 427.249 310.503Z" fill="url(#paint2_linear_1_1168)"/>
<defs>
<radialGradient id="paint0_radial_1_1168" cx="0" cy="0" r="1" gradientUnits="userSpaceOnUse" gradientTransform="translate(362.629 500.341) rotate(-10.0245) scale(320.754 133.882)">
<stop stop-color="#262626"/>
<stop offset="0.502" stop-color="#979797"/>
<stop offset="1" stop-color="#323232"/>
</radialGradient>
<linearGradient id="paint1_linear_1_1168" x1="136.232" y1="32.9525" x2="409.458" y2="469.122" gradientUnits="userSpaceOnUse">
<stop stop-color="#FFF7D6"/>
<stop offset="1" stop-color="#8AC03A"/>
</linearGradient>
<linearGradient id="paint2_linear_1_1168" x1="332.573" y1="314.958" x2="384.903" y2="369.365" gradientUnits="userSpaceOnUse">
<stop stop-color="#FDFDFD"/>
<stop offset="1" stop-color="#CDE1FD"/>
</linearGradient>
</defs>
</svg>
