<svg width="34" height="43" viewBox="0 0 34 43" fill="none" xmlns="http://www.w3.org/2000/svg">
<path d="M23.4286 4.14286H29.8571C30.4255 4.14286 30.9705 4.36862 31.3724 4.77049C31.7742 5.17235 32 5.71739 32 6.28571V38.4286C32 38.9969 31.7742 39.5419 31.3724 39.9438C30.9705 40.3457 30.4255 40.5714 29.8571 40.5714H4.14286C3.57454 40.5714 3.02949 40.3457 2.62763 39.9438C2.22577 39.5419 2 38.9969 2 38.4286V6.28571C2 5.71739 2.22577 5.17235 2.62763 4.77049C3.02949 4.36862 3.57454 4.14286 4.14286 4.14286H10.5714M10.5714 10.5714H23.4286M17 21.2857H23.4286M10.5714 21.2857H10.5929M17 29.8571H23.4286M10.5714 29.8571H10.5929M12.7143 2V10.5714H21.2857V2H12.7143Z" stroke="white" stroke-width="2.91667" stroke-linecap="round" stroke-linejoin="round"/>
</svg>
