<svg width="754" height="754" viewBox="0 0 754 754" fill="none" xmlns="http://www.w3.org/2000/svg">
<path d="M591.777 224.444H499.944V163.222C499.944 146.985 493.494 131.413 482.013 119.932C470.531 108.45 454.959 102 438.722 102H316.278C300.041 102 284.468 108.45 272.987 119.932C261.506 131.413 255.055 146.985 255.055 163.222V224.444H163.222C146.985 224.444 131.413 230.895 119.932 242.376C108.45 253.857 102 269.429 102 285.667L102 591.777C102 608.015 108.45 623.587 119.932 635.068C131.413 646.549 146.985 653 163.222 653H591.777C608.015 653 623.587 646.549 635.068 635.068C646.549 623.587 653 608.015 653 591.777V285.667C653 269.429 646.549 253.857 635.068 242.376C623.587 230.895 608.015 224.444 591.777 224.444ZM285.667 193.833C285.667 185.715 288.892 177.929 294.632 172.188C300.373 166.447 308.159 163.222 316.278 163.222H438.722C446.841 163.222 454.627 166.447 460.367 172.188C466.108 177.929 469.333 185.715 469.333 193.833V224.444H285.667V193.833Z" fill="#D95600"/>
<path d="M653 407.522C653 423.916 646.549 439.637 635.068 451.229C623.587 462.821 608.015 469.333 591.777 469.333H163.222C146.985 469.333 131.413 462.821 119.932 451.229C108.45 439.637 102 423.916 102 407.522V283.901C102 267.507 108.45 251.785 119.932 240.194C131.413 228.602 146.985 222.09 163.222 222.09H591.777C608.015 222.09 623.587 228.602 635.068 240.194C646.549 251.785 653 267.507 653 283.901V407.522Z" fill="#AE4500"/>
<path d="M653 378.509C653 395.103 646.549 411.017 635.068 422.751C623.587 434.485 608.015 441.077 591.777 441.077H163.222C146.985 441.077 131.413 434.485 119.932 422.751C108.45 411.017 102 395.103 102 378.509V284.657C102 268.063 108.45 252.149 119.932 240.415C131.413 228.682 146.985 222.09 163.222 222.09H591.777C608.015 222.09 623.587 228.682 635.068 240.415C646.549 252.149 653 268.063 653 284.657V378.509Z" fill="#D95600"/>
<path d="M441.078 377.5C441.078 384.994 437.728 392.181 431.767 397.48C425.805 402.779 417.72 405.756 409.289 405.756H345.712C337.281 405.756 329.196 402.779 323.234 397.48C317.273 392.181 313.924 384.994 313.924 377.5C313.924 370.006 317.273 362.819 323.234 357.52C329.196 352.221 337.281 349.244 345.712 349.244H409.289C417.72 349.244 425.805 352.221 431.767 357.52C437.728 362.819 441.078 370.006 441.078 377.5Z" fill="#CCD6DD"/>
</svg>
